<?xml version="1.0" encoding="UTF-8" standalone="no"?>
<svg
   viewBox="0 0 75 75"
   version="1.1"
   xmlns="http://www.w3.org/2000/svg">
  <defs>
    <style>
      @media (prefers-color-scheme: dark) {
        .spiral-stroke { stroke: #e2e8f0; }
        .spiral-center { fill: #e2e8f0; }
      }
      @media (prefers-color-scheme: light) {
        .spiral-stroke { stroke: #334155; }
        .spiral-center { fill: #334155; }
      }
    </style>
  </defs>
  
  <g transform="translate(-2.3206992,-4.4163272)">
    <!-- Inverted spiral - starts from inside out -->
    <path
       d="m 35.820699,67.916326 q 0,-4 4,-4"
       fill="none"
       class="spiral-stroke"
       stroke-width="6"
       stroke-linecap="round"
       opacity="0.3" />
    <path
       d="m 39.820699,63.916326 q 4,0 4,4 0,4 -4,4"
       fill="none"
       class="spiral-stroke"
       stroke-width="6"
       stroke-linecap="round"
       opacity="0.4" />
    <path
       d="m 39.820699,71.916326 q -8,0 -8,-8"
       fill="none"
       class="spiral-stroke"
       stroke-width="6"
       stroke-linecap="round"
       opacity="0.5" />
    <path
       d="m 31.820699,63.916326 q 0,-8 8,-8 8,0 8,8"
       fill="none"
       class="spiral-stroke"
       stroke-width="6"
       stroke-linecap="round"
       opacity="0.6" />
    <path
       d="m 39.820699,71.916326 q -15,0 -15,-15"
       fill="none"
       class="spiral-stroke"
       stroke-width="6"
       stroke-linecap="round"
       opacity="0.7" />
    <path
       d="m 24.820699,56.916326 q 0,-15 15,-15 15,0 15,15"
       fill="none"
       class="spiral-stroke"
       stroke-width="6"
       stroke-linecap="round"
       opacity="0.8" />
    <path
       d="m 39.820699,71.916326 q -29.9999995,0 -29.9999995,-30"
       fill="none"
       class="spiral-stroke"
       stroke-width="6"
       stroke-linecap="round"
       opacity="0.9" />
    <path
       d="m 9.8206995,41.916326 q 0,-30 29.9999995,-30 30,0 30,30"
       fill="none"
       class="spiral-stroke"
       stroke-width="6"
       stroke-linecap="round"
       opacity="1.0" />
    
    <!-- Center point -->
    <circle
       cx="39.820698"
       cy="71.916328"
       r="3"
       class="spiral-center" />
  </g>
</svg>
