<?xml version="1.0" encoding="UTF-8" standalone="no"?>
<svg
   viewBox="0 0 75 75"
   version="1.1"
   id="svg8"
   sodipodi:docname="spiralize-logo.svg"
   width="75"
   height="75"
   inkscape:version="1.4 (e7c3feb100, 2024-10-09)"
   xmlns:inkscape="http://www.inkscape.org/namespaces/inkscape"
   xmlns:sodipodi="http://sodipodi.sourceforge.net/DTD/sodipodi-0.dtd"
   xmlns="http://www.w3.org/2000/svg"
   xmlns:svg="http://www.w3.org/2000/svg">
  <defs
     id="defs8" />
  <sodipodi:namedview
     id="namedview8"
     pagecolor="#ffffff"
     bordercolor="#000000"
     borderopacity="0.25"
     inkscape:showpageshadow="2"
     inkscape:pageopacity="0.0"
     inkscape:pagecheckerboard="0"
     inkscape:deskcolor="#d1d1d1"
     inkscape:zoom="2.9910617"
     inkscape:cx="72.215161"
     inkscape:cy="95.952551"
     inkscape:window-width="2520"
     inkscape:window-height="1048"
     inkscape:window-x="0"
     inkscape:window-y="0"
     inkscape:window-maximized="1"
     inkscape:current-layer="svg8" />
  <!-- Background circle -->
  <!-- Spiral segments with stage colors -->
  <!-- Center dot -->
  <g
     id="g8"
     transform="translate(-2.3206992,-4.4163272)">
    <path
       d="m 39.820699,71.916326 q 30,0 30,-30 0,-30 -30,-30 -29.9999995,0 -29.9999995,30"
       fill="none"
       stroke="#ff6f61"
       stroke-width="8"
       stroke-linecap="round"
       id="path1" />
    <path
       d="m 9.8206995,41.916326 q 0,30 29.9999995,30"
       fill="none"
       stroke="#40e0d0"
       stroke-width="8"
       stroke-linecap="round"
       id="path2" />
    <path
       d="m 39.820699,71.916326 q 15,0 15,-15 0,-15 -15,-15 -15,0 -15,15"
       fill="none"
       stroke="#ffd700"
       stroke-width="8"
       stroke-linecap="round"
       id="path3" />
    <path
       d="m 24.820699,56.916326 q 0,15 15,15"
       fill="none"
       stroke="#7ab55c"
       stroke-width="8"
       stroke-linecap="round"
       id="path4" />
    <path
       d="m 39.820699,71.916326 q 8,0 8,-8 0,-8 -8,-8 -8,0 -8,8"
       fill="none"
       stroke="#ff7f27"
       stroke-width="8"
       stroke-linecap="round"
       id="path5" />
    <path
       d="m 31.820699,63.916326 q 0,8 8,8"
       fill="none"
       stroke="#4a72b2"
       stroke-width="8"
       stroke-linecap="round"
       id="path6" />
    <path
       d="m 39.820699,71.916326 q 4,0 4,-4 0,-4 -4,-4 -4,0 -4,4"
       fill="none"
       stroke="#e25a53"
       stroke-width="8"
       stroke-linecap="round"
       id="path7" />
    <path
       d="m 35.820699,67.916326 q 0,4 4,4"
       fill="none"
       stroke="#9b6b9e"
       stroke-width="8"
       stroke-linecap="round"
       id="path8" />
    <circle
       cx="39.820698"
       cy="71.916328"
       r="4"
       fill="#e5d0ba"
       id="circle8" />
  </g>
</svg>
